<?xml version="1.0"?>
<!-- Created with Inkscape (http://www.inkscape.org/) -->
<svg xmlns:dc="http://purl.org/dc/elements/1.1/" xmlns:cc="http://creativecommons.org/ns#" xmlns:rdf="http://www.w3.org/1999/02/22-rdf-syntax-ns#" xmlns:svg="http://www.w3.org/2000/svg" xmlns="http://www.w3.org/2000/svg" xmlns:sodipodi="http://sodipodi.sourceforge.net/DTD/sodipodi-0.dtd" xmlns:inkscape="http://www.inkscape.org/namespaces/inkscape" height="48.000015" width="54" id="svg3124" sodipodi:version="0.32" inkscape:version="0.92.1 r15371" version="1.0" sodipodi:docname="slider.svg" inkscape:output_extension="org.inkscape.output.svg.inkscape">
  <sodipodi:namedview id="base" pagecolor="#a060a0" bordercolor="#646064" borderopacity="1.0" inkscape:pageopacity="0.5" inkscape:pageshadow="2" inkscape:cx="53.998274" inkscape:cy="17.216568" inkscape:zoom="8.0000001" inkscape:document-units="px" inkscape:current-layer="layer1" showgrid="true" gridtolerance="10000" inkscape:grid-points="true" inkscape:window-width="1867" inkscape:window-height="1055" inkscape:window-x="0" inkscape:window-y="0" showguides="true" inkscape:guide-bbox="true" inkscape:window-maximized="1" fit-margin-top="0" fit-margin-left="0" fit-margin-right="0" fit-margin-bottom="0" inkscape:snap-bbox="true" inkscape:object-nodes="false" inkscape:bbox-nodes="true" inkscape:bbox-paths="true" inkscape:snap-nodes="false">
    <inkscape:grid enabled="true" visible="true" id="grid3133" type="xygrid" empspacing="5" snapvisiblegridlinesonly="true" originx="2.0000002" originy="37.000013" spacingx="1" spacingy="1"/>
  </sodipodi:namedview>
  <defs id="defs3126">
    <style type="text/css" id="current-color-scheme">
      .ColorScheme-Text {
        color:#000000;
      }
      .ColorScheme-Background {
        color:#808080;
      }
      .ColorScheme-Highlight {
        color:#000080;
      }
      .ColorScheme-ViewText {
        color:#000000;
      }
      .ColorScheme-ViewBackground {
        color:#ffffff;
      }
      .ColorScheme-ViewHover {
        color:#8ecbe9;
      }
      .ColorScheme-ViewFocus{
        color:#000080;
      }
      .ColorScheme-ButtonText {
        color:#000000;
      }
      .ColorScheme-ButtonBackground {
        color:#808080;
      }
      .ColorScheme-ButtonHover {
        color:#8ecbe9;
      }
      .ColorScheme-ButtonFocus{
        color:#000080;
      }
      </style>
  </defs>
  <metadata id="metadata3129">
    <rdf:RDF>
      <cc:Work rdf:about="">
        <dc:format>image/svg+xml</dc:format>
        <dc:type rdf:resource="http://purl.org/dc/dcmitype/StillImage"/>
        <dc:title/>
      </cc:Work>
    </rdf:RDF>
  </metadata>
  <g transform="translate(38.5,-27.862171)" id="layer1" inkscape:label="Warstwa 1" inkscape:groupmode="layer">
    <g transform="matrix(0.40909092,0,0,0.4090909,-59.250001,16.782196)" id="groove-center">
      <rect y="36.862179" x="60.5" height="44" width="44" id="rect7000" style="fill:currentColor;fill-opacity:0.5;stroke:none" class="ColorScheme-Background"/>
      <rect y="36.862179" x="60.5" height="44" width="44" id="rect5737" style="opacity:0.271;fill:#000000;fill-opacity:1;stroke:none"/>
    </g>
    <g transform="translate(-6,-6.000001)" id="groove-topleft">
      <rect y="33.862179" x="-32.5" height="3" width="3" id="rect4056" style="opacity:0;fill:#ff00ff;fill-opacity:1;stroke:none"/>
      <rect style="fill:currentColor;fill-opacity:0.5;stroke:none" id="rect4000" width="2" height="2" x="-31.5" y="34.862179" class="ColorScheme-Background"/>
      <path id="rect3222-0-3" d="m -31.5,34.862177 v 1 1 h 1 v -1 h 1 v -1 z" style="fill:#000000;fill-opacity:0.749;stroke:none" inkscape:connector-curvature="0"/>
      <rect y="35.862179" x="-30.5" height="1" width="1" id="rect3293-2-6" style="opacity:0.271;fill:#000000;fill-opacity:1;stroke:none"/>
    </g>
    <g transform="translate(-30,-30.000002)" id="groove-bottomright">
      <rect y="80.862175" x="14.5" height="3" width="3" id="rect4074" style="opacity:0;fill:#ff00ff;fill-opacity:1;stroke:none"/>
      <rect style="fill:currentColor;fill-opacity:0.5;stroke:none" id="rect4020" width="2" height="2" x="14.5" y="80.862175" class="ColorScheme-Background"/>
      <path id="rect3222-7-1-7" d="m 16.5,82.862177 v -1 -1 h -1 v 1 h -1 v 1 z" style="fill:#000000;fill-opacity:0.749;stroke:none" inkscape:connector-curvature="0"/>
      <rect y="80.862175" x="14.5" height="1" width="1" id="rect3315-9-1-5" style="opacity:0.271;fill:#000000;fill-opacity:1;stroke:none"/>
      <path inkscape:connector-curvature="0" style="fill:#ffffff;fill-opacity:0.667;stroke:none" d="m 17.5,83.862177 v -1 -2 h -1 v 2 h -2 v 1 z" id="rect3214-7-0-3"/>
    </g>
    <g transform="translate(-30,-6.0000052)" id="groove-topright">
      <rect y="33.862179" x="14.5" height="3" width="3" id="rect4060" style="opacity:0;fill:#ff00ff;fill-opacity:1;stroke:none"/>
      <rect style="fill:currentColor;fill-opacity:0.5;stroke:none" id="rect4004" width="2" height="2" x="14.5" y="34.862179" class="ColorScheme-Background"/>
      <path id="rect3222-3-0-5" d="m 16.5,34.862177 v 1 1 h -1 v -1 h -1 v -1 z" style="fill:#000000;fill-opacity:0.749;stroke:none" inkscape:connector-curvature="0"/>
      <rect y="35.862179" x="14.5" height="1" width="1" id="rect3315-1-6-6" style="opacity:0.271;fill:#000000;fill-opacity:1;stroke:none"/>
      <rect style="fill:#ffffff;fill-opacity:0.667;stroke:none" id="rect3251-4-2" width="1" height="3" x="16.5" y="33.862179"/>
    </g>
    <g transform="translate(-6.0000002,-29.999998)" id="groove-bottomleft">
      <rect y="80.862175" x="-32.5" height="3" width="3" id="rect4068" style="opacity:0;fill:#ff00ff;fill-opacity:1;stroke:none"/>
      <rect style="fill:currentColor;fill-opacity:0.5;stroke:none" id="rect4014" width="2" height="2" x="-31.5" y="80.862175" class="ColorScheme-Background"/>
      <path id="rect3222-6-8-9" d="m -31.5,82.862177 v -1 -1 h 1 v 1 h 1 v 1 z" style="fill:#000000;fill-opacity:0.749;stroke:none" inkscape:connector-curvature="0"/>
      <rect y="80.862175" x="-30.5" height="1" width="1" id="rect3315-6-1" style="opacity:0.271;fill:#000000;fill-opacity:1;stroke:none"/>
      <rect style="fill:#ffffff;fill-opacity:0.667;stroke:none" id="rect3251-3-2-2" width="1" height="3" x="82.862175" y="29.5" transform="rotate(90)"/>
    </g>
    <g transform="matrix(0.40909091,0,0,1,-22.431818,-6.0000052)" id="groove-top">
      <rect y="33.862179" x="-29.5" height="3" width="44" id="rect4058" style="opacity:0;fill:#ff00ff;fill-opacity:1;stroke:none"/>
      <rect style="fill:currentColor;fill-opacity:0.5;stroke:none" id="rect4002" width="44" height="2" x="-29.5" y="34.862179" class="ColorScheme-Background"/>
      <rect y="34.862179" x="-29.5" height="1" width="44" id="rect3259-2-7" style="fill:#000000;fill-opacity:0.749;stroke:none"/>
      <rect y="35.862179" x="-29.5" height="1" width="44" id="rect3295-4-0" style="opacity:0.271;fill:#000000;fill-opacity:1;stroke:none"/>
    </g>
    <g transform="matrix(1,0,0,0.409091,-6,16.782191)" id="groove-left">
      <rect y="36.862179" x="-32.5" height="44" width="3" id="rect4062" style="opacity:0;fill:#ff00ff;fill-opacity:1;stroke:none"/>
      <rect style="fill:currentColor;fill-opacity:0.5;stroke:none" id="rect4006" width="2" height="44" x="-31.5" y="36.862179" class="ColorScheme-Background"/>
      <rect transform="rotate(90)" y="30.5" x="36.862175" height="1" width="44" id="rect3259-5-9-9" style="fill:#000000;fill-opacity:0.749;stroke:none"/>
      <rect transform="rotate(90)" y="29.5" x="36.862175" height="1" width="44" id="rect3295-2-9-3" style="opacity:0.271;fill:#000000;fill-opacity:1;stroke:none"/>
    </g>
    <g transform="matrix(1,0,0,0.40909091,-30,16.782193)" id="groove-right">
      <rect y="36.862179" x="14.5" height="44" width="3" id="rect4066" style="opacity:0;fill:#ff00ff;fill-opacity:1;stroke:none"/>
      <rect style="fill:currentColor;fill-opacity:0.5;stroke:none" id="rect4012" width="2" height="44" x="14.5" y="36.862179" class="ColorScheme-Background"/>
      <rect transform="rotate(90)" y="-16.5" x="36.862179" height="1" width="44" id="rect3259-3-3-6" style="fill:#000000;fill-opacity:0.749;stroke:none"/>
      <rect transform="rotate(90)" y="-15.5" x="36.862179" height="1" width="44" id="rect3342-2-1-0" style="opacity:0.271;fill:#000000;fill-opacity:1;stroke:none"/>
      <rect style="fill:#ffffff;fill-opacity:0.667;stroke:none" id="rect3303-2-1-6" width="44" height="1" x="36.862179" y="-17.5" transform="rotate(90)"/>
    </g>
    <g transform="matrix(0.40909091,0,0,1,-22.431818,-30)" id="groove-bottom">
      <rect y="80.862175" x="-29.5" height="3" width="44" id="rect4072" style="opacity:0;fill:#ff00ff;fill-opacity:1;stroke:none"/>
      <rect style="fill:currentColor;fill-opacity:0.5;stroke:none" id="rect4016" width="44" height="2" x="-29.5" y="80.862175" class="ColorScheme-Background"/>
      <rect y="81.862175" x="-29.5" height="1" width="44" id="rect3259-56-4-26" style="fill:#000000;fill-opacity:0.749;stroke:none"/>
      <rect y="80.862175" x="-29.5" height="1" width="44" id="rect3342-0-1" style="opacity:0.271;fill:#000000;fill-opacity:1;stroke:none"/>
      <rect style="fill:#ffffff;fill-opacity:0.667;stroke:none" id="rect3303-9-3-8" width="44" height="1" x="-29.5" y="82.862175"/>
    </g>
    <rect style="fill:currentColor;fill-opacity:1;stroke:none" id="groove-highlight-center" width="18" height="18" x="-6.5" y="31.862175" class="ColorScheme-Highlight"/>
    <g id="groove-highlight-topleft" transform="translate(22,-56.000003)">
      <rect y="83.862175" x="-32.5" height="3" width="3" id="rect4056-2" style="opacity:0;fill:#ff00ff;fill-opacity:1;stroke:none"/>
      <rect style="fill:currentColor;fill-opacity:1;stroke:none" id="rect4000-3" width="2" height="2" x="-31.5" y="84.862175" class="ColorScheme-Highlight"/>
      <path id="rect3222-0-75" d="m -31.5,84.862175 v 1 1 h 1 v -1 h 1 v -1 z" style="fill:#000000;fill-opacity:0.749;stroke:none" inkscape:connector-curvature="0"/>
    </g>
    <g id="groove-highlight-bottomright" transform="translate(-2.0000002,-79.999998)">
      <rect y="130.86217" x="14.5" height="3" width="3" id="rect4074-2" style="opacity:0;fill:#ff00ff;fill-opacity:1;stroke:none"/>
      <rect style="fill:currentColor;fill-opacity:1;stroke:none" id="rect4020-8" width="2" height="2" x="14.5" y="130.86217" class="ColorScheme-Highlight"/>
      <path id="rect3222-7-1-9" d="m 16.5,132.86217 v -1 -1 h -1 v 1 h -1 v 1 z" style="fill:#000000;fill-opacity:0.749;stroke:none" inkscape:connector-curvature="0"/>
    </g>
    <g id="groove-highlight-topright" transform="translate(-2,-56.000004)">
      <rect y="83.862175" x="14.5" height="3" width="3" id="rect4060-2" style="opacity:0;fill:#ff00ff;fill-opacity:1;stroke:none"/>
      <rect style="fill:currentColor;fill-opacity:1;stroke:none" id="rect4004-9" width="2" height="2" x="14.5" y="84.862175" class="ColorScheme-Highlight"/>
      <path id="rect3222-3-0-3" d="m 16.5,84.862175 v 1 1 h -1 v -1 h -1 v -1 z" style="fill:#000000;fill-opacity:0.749;stroke:none" inkscape:connector-curvature="0"/>
    </g>
    <g id="groove-highlight-bottomleft" transform="translate(22,-79.999997)">
      <rect y="130.86217" x="-32.5" height="3" width="3" id="rect4068-7" style="opacity:0;fill:#ff00ff;fill-opacity:1;stroke:none"/>
      <rect style="fill:currentColor;fill-opacity:1;stroke:none" id="rect4014-8" width="2" height="2" x="-31.5" y="130.86217" class="ColorScheme-Highlight"/>
      <path id="rect3222-6-8-4" d="m -31.5,132.86217 v -1 -1 h 1 v 1 h 1 v 1 z" style="fill:#000000;fill-opacity:0.749;stroke:none" inkscape:connector-curvature="0"/>
    </g>
    <g id="groove-highlight-top" transform="matrix(0.40909091,0,0,1,5.5681818,-56.000003)">
      <rect y="83.862175" x="-29.5" height="3" width="44" id="rect4058-6" style="opacity:0;fill:#ff00ff;fill-opacity:1;stroke:none"/>
      <rect style="fill:currentColor;fill-opacity:1;stroke:none" id="rect4002-1" width="44" height="2" x="-29.5" y="84.862175" class="ColorScheme-Highlight"/>
      <rect y="84.862175" x="-29.5" height="1" width="44" id="rect3259-2-0" style="fill:#000000;fill-opacity:0.749;stroke:none"/>
    </g>
    <g id="groove-highlight-left" transform="matrix(1,0,0,0.40909083,22,-3.6723438)">
      <rect y="86.862175" x="-32.5" height="44" width="3" id="rect4062-2" style="opacity:0;fill:#ff00ff;fill-opacity:1;stroke:none"/>
      <rect style="fill:currentColor;fill-opacity:1;stroke:none" id="rect4006-0" width="2" height="44" x="-31.5" y="86.862175" class="ColorScheme-Highlight"/>
      <rect transform="rotate(90)" y="30.5" x="86.862175" height="1" width="44" id="rect3259-5-9-6" style="fill:#000000;fill-opacity:0.749;stroke:none"/>
    </g>
    <g id="groove-highlight-right" transform="matrix(1,0,0,0.40909084,-2,-3.6723447)">
      <rect y="86.862175" x="14.5" height="44" width="3" id="rect4066-5" style="opacity:0;fill:#ff00ff;fill-opacity:1;stroke:none"/>
      <rect style="fill:currentColor;fill-opacity:1;stroke:none" id="rect4012-4" width="2" height="44" x="14.5" y="86.862175" class="ColorScheme-Highlight"/>
      <rect transform="rotate(90)" y="-16.5" x="86.862175" height="1" width="44" id="rect3259-3-3-76" style="fill:#000000;fill-opacity:0.749;stroke:none"/>
    </g>
    <g id="groove-highlight-bottom" transform="matrix(0.40909091,0,0,1,5.5681816,-79.999994)">
      <rect y="130.86217" x="-29.5" height="3" width="44" id="rect4072-4" style="opacity:0;fill:#ff00ff;fill-opacity:1;stroke:none"/>
      <rect style="fill:currentColor;fill-opacity:1;stroke:none" id="rect4016-5" width="44" height="2" x="-29.5" y="130.86217" class="ColorScheme-Highlight"/>
      <rect y="131.86217" x="-29.5" height="1" width="44" id="rect3259-56-4-25" style="fill:#000000;fill-opacity:0.749;stroke:none"/>
    </g>
    <g id="horizontal-slider-handle" inkscape:label="#g4891" transform="translate(-49,27.000008)">
      <rect y="28.862167" x="10.5" height="20.000002" width="20" id="rect3293-9-6" style="color:#000000;display:inline;overflow:visible;visibility:visible;fill:#ff00ff;fill-opacity:0;fill-rule:nonzero;stroke:none;stroke-width:1;marker:none;enable-background:accumulate"/>
      <path inkscape:connector-curvature="0" id="rect3095-8" d="m 14.5,30.862177 v 12 l 6,6.000003 6,-6.000003 v -12 z" style="display:inline;overflow:visible;visibility:visible;fill:currentColor;fill-opacity:0.999;fill-rule:nonzero;stroke:none;stroke-width:1;marker:none;enable-background:accumulate" class="ColorScheme-ButtonBackground"/>
      <path inkscape:connector-curvature="0" id="rect3095-9-7" d="m 14.5,30.862177 v 12 l 6,6.000003 6,-6.000003 v -12 z m 1,1 h 10 v 10.59375 l -5,5.000003 -5,-5.000003 z" style="color:#000000;display:inline;overflow:visible;visibility:visible;opacity:0.749;fill:#000000;fill-opacity:1;fill-rule:nonzero;stroke:none;stroke-width:1;marker:none;enable-background:accumulate"/>
      <path inkscape:connector-curvature="0" id="path3997-7-9" d="m 15.5,31.862177 v 10.59375 l 1,1.000003 V 32.862177 h 9 v -1 z" style="color:#000000;display:inline;overflow:visible;visibility:visible;opacity:0.667;fill:#ffffff;fill-opacity:1;fill-rule:nonzero;stroke:none;stroke-width:1;marker:none;enable-background:accumulate"/>
      <path id="path3997-0-2" transform="translate(-37.5,28.862167)" d="M 62,3 V 4 8.1875 10 v 3.1875 1.40625 l 1,-1 V 3 Z" style="color:#000000;display:inline;overflow:visible;visibility:visible;opacity:0.537;fill:#000000;fill-opacity:1;fill-rule:nonzero;stroke:none;stroke-width:1;marker:none;enable-background:accumulate" inkscape:connector-curvature="0"/>
    </g>
    <g transform="matrix(0,1,1,0,-45.362167,45.362175)" id="vertical-slider-handle" inkscape:label="#g4891">
      <rect y="28.862167" x="10.5" height="20.000002" width="20" id="rect3293-9-6-6" style="color:#000000;display:inline;overflow:visible;visibility:visible;fill:#ff00ff;fill-opacity:0;fill-rule:nonzero;stroke:none;stroke-width:1;marker:none;enable-background:accumulate"/>
      <path inkscape:connector-curvature="0" id="rect3095-8-1" d="m 14.5,30.862177 v 12 l 6,6.000003 6,-6.000003 v -12 z" style="display:inline;overflow:visible;visibility:visible;fill:currentColor;fill-opacity:0.999;fill-rule:nonzero;stroke:none;stroke-width:1;marker:none;enable-background:accumulate" class="ColorScheme-ButtonBackground"/>
      <path inkscape:connector-curvature="0" id="rect3095-9-7-5" d="m 14.5,30.862177 v 12 l 6,6.000003 6,-6.000003 v -12 z m 1,1 h 10 v 10.59375 l -5,5.000003 -5,-5.000003 z" style="color:#000000;display:inline;overflow:visible;visibility:visible;opacity:0.749;fill:#000000;fill-opacity:1;fill-rule:nonzero;stroke:none;stroke-width:1;marker:none;enable-background:accumulate"/>
      <path inkscape:connector-curvature="0" id="path3997-7-9-5" d="m 15.5,31.862177 v 10.59375 l 1,1.000003 V 32.862177 h 9 v -1 z" style="color:#000000;display:inline;overflow:visible;visibility:visible;opacity:0.667;fill:#ffffff;fill-opacity:1;fill-rule:nonzero;stroke:none;stroke-width:1;marker:none;enable-background:accumulate"/>
      <path inkscape:connector-curvature="0" id="path3997-0-2-4" transform="translate(-37.5,28.862167)" d="M 62,3 V 4 8.1875 10 v 3.1875 1.40625 l 1,-1 V 3 Z" style="color:#000000;display:inline;overflow:visible;visibility:visible;opacity:0.537;fill:#000000;fill-opacity:1;fill-rule:nonzero;stroke:none;stroke-width:1;marker:none;enable-background:accumulate"/>
    </g>
  </g>
</svg>
