<?xml version="1.0"?>
<!-- Created with Inkscape (http://www.inkscape.org/) -->
<svg xmlns:ns="http://purl.org/dc/elements/1/" xmlns:dc="http://purl.org/dc/elements/1.1/" xmlns:cc="http://creativecommons.org/ns#" xmlns:rdf="http://www.w3.org/1999/02/22-rdf-syntax-ns#" xmlns:svg="http://www.w3.org/2000/svg" xmlns="http://www.w3.org/2000/svg" xmlns:sodipodi="http://sodipodi.sourceforge.net/DTD/sodipodi-0.dtd" xmlns:inkscape="http://www.inkscape.org/namespaces/inkscape" height="79" width="199" id="svg3124" sodipodi:version="0.32" inkscape:version="0.92.1 r15371" version="1.0" sodipodi:docname="tasks.svg" inkscape:output_extension="org.inkscape.output.svg.inkscape">
  <sodipodi:namedview id="base" pagecolor="#a060a0" bordercolor="#646064" borderopacity="1" inkscape:pageopacity="0" inkscape:pageshadow="2" inkscape:cx="135" inkscape:cy="21" inkscape:zoom="3" inkscape:document-units="px" inkscape:current-layer="layer1" showgrid="true" gridtolerance="10000" inkscape:grid-points="true" inkscape:window-width="1867" inkscape:window-height="1054" inkscape:window-x="0" inkscape:window-y="0" showguides="true" inkscape:guide-bbox="true" inkscape:window-maximized="1" fit-margin-top="0" fit-margin-left="0" fit-margin-right="0" fit-margin-bottom="0">
    <inkscape:grid originy="18" originx="1" snapvisiblegridlinesonly="true" empspacing="5" type="xygrid" id="grid3133" visible="true" enabled="true" spacingx="1" spacingy="1"/>
  </sodipodi:namedview>
  <defs id="defs3126">
    <style type="text/css" id="current-color-scheme">
      .ColorScheme-Text {
        color:#000000;
      }
      .ColorScheme-Background {
        color:#808080;
      }
      .ColorScheme-Highlight {
        color:#000080;
      }
      .ColorScheme-ViewText {
        color:#000000;
      }
      .ColorScheme-ViewBackground {
        color:#ffffff;
      }
      .ColorScheme-ViewHover {
        color:#8ecbe9;
      }
      .ColorScheme-ViewFocus{
        color:#000080;
      }
      .ColorScheme-ButtonText {
        color:#000000;
      }
      .ColorScheme-ButtonBackground {
        color:#808080;
      }
      .ColorScheme-ButtonHover {
        color:#8ecbe9;
      }
      .ColorScheme-ButtonFocus{
        color:#000080;
      }
      </style>
  </defs>
  <metadata id="metadata3129">
    <rdf:RDF>
      <cc:Work rdf:about="">
        <ns:format>image/svg+xml</ns:format>
        <ns:type rdf:resource="http://purl.org/dc/dcmitype/StillImage"/>
        <ns:title/>
        <dc:format>image/svg+xml</dc:format>
        <dc:type rdf:resource="http://purl.org/dc/dcmitype/StillImage"/>
        <dc:title/>
      </cc:Work>
    </rdf:RDF>
  </metadata>
  <g inkscape:groupmode="layer" inkscape:label="Warstwa 1" id="layer1" transform="translate(-24,-70)">
    <rect y="74" x="28" height="18" width="18" id="normal-center" style="fill:currentColor;fill-opacity:0.333;stroke:none" class="ColorScheme-ButtonBackground"/>
    <g id="normal-topleft">
      <rect style="opacity:0;fill:#ff00ff;fill-opacity:0;stroke:none" id="rect4056-7-7" width="3" height="3" x="24" y="70"/>
      <g id="g4355-5-5">
        <rect style="fill:currentColor;fill-opacity:0.333;stroke:none" id="rect4000-3-3" width="2" height="2" x="25" y="71" class="ColorScheme-ButtonBackground"/>
        <g id="g4285-5-5">
          <path style="fill:#000000;fill-opacity:0.749;stroke:none" d="m 25,71 c 0,0 0,1 0,1 0,0 0,1 0,1 0,0 1,0 1,0 0,0 0,-1 0,-1 0,0 1,0 1,0 0,0 0,-1 0,-1 0,0 -2,0 -2,0" id="rect3222-62-6" inkscape:connector-curvature="0"/>
          <rect style="fill:#ffffff;fill-opacity:0.667;stroke:none" id="rect3293-9-2" width="1" height="1" x="26" y="72"/>
        </g>
      </g>
    </g>
    <g id="normal-bottomright">
      <rect style="opacity:0;fill:#ff00ff;fill-opacity:0;stroke:none" id="rect4074-2-1" width="3" height="3" x="47" y="93"/>
      <g id="g4363-7-2">
        <rect style="fill:currentColor;fill-opacity:0.333;stroke:none" id="rect4020-0-7" width="2" height="2" x="47" y="93" class="ColorScheme-ButtonBackground"/>
        <g id="g4291-9-0">
          <path style="fill:#000000;fill-opacity:0.749;stroke:none" d="m 49,95 c 0,0 0,-1 0,-1 0,0 0,-1 0,-1 0,0 -1,0 -1,0 0,0 0,1 0,1 0,0 -1,0 -1,0 0,0 0,1 0,1 0,0 2,0 2,0" id="rect3222-7-3-9" inkscape:connector-curvature="0"/>
          <rect style="fill:#000000;fill-opacity:0.537;stroke:none" id="rect3315-9-60-3" width="1" height="1" x="47" y="93"/>
        </g>
      </g>
    </g>
    <g id="normal-topright">
      <rect style="opacity:0;fill:#ff00ff;fill-opacity:0;stroke:none" id="rect4060-2-0" width="3" height="3" x="47" y="70"/>
      <g id="g4371-6-6">
        <rect style="fill:currentColor;fill-opacity:0.333;stroke:none" id="rect4004-1-2" width="2" height="2" x="47" y="71" class="ColorScheme-ButtonBackground"/>
        <g id="g4297-8-6">
          <path style="fill:#000000;fill-opacity:0.749;stroke:none" d="m 49,71 c 0,0 0,1 0,1 0,0 0,1 0,1 0,0 -1,0 -1,0 0,0 0,-1 0,-1 0,0 -1,0 -1,0 0,0 0,-1 0,-1 0,0 2,0 2,0" id="rect3222-3-7-1" inkscape:connector-curvature="0"/>
          <rect style="fill:#000000;fill-opacity:0.537;stroke:none" id="rect3315-1-9-8" width="1" height="1" x="47" y="72"/>
        </g>
      </g>
    </g>
    <g id="normal-bottomleft">
      <rect style="opacity:0;fill:#ff00ff;fill-opacity:0;stroke:none" id="rect4068-0-9" width="3" height="3" x="24" y="93"/>
      <g id="g4379-2-2">
        <rect style="fill:currentColor;fill-opacity:0.333;stroke:none" id="rect4014-3-0" width="2" height="2" x="25" y="93" class="ColorScheme-ButtonBackground"/>
        <g id="g4303-7-2">
          <path style="fill:#000000;fill-opacity:0.749;stroke:none" d="m 25,95 c 0,0 0,-1 0,-1 0,0 0,-1 0,-1 0,0 1,0 1,0 0,0 0,1 0,1 0,0 1,0 1,0 0,0 0,1 0,1 0,0 -2,0 -2,0" id="rect3222-6-5-3" inkscape:connector-curvature="0"/>
          <rect style="fill:#000000;fill-opacity:0.537;stroke:none" id="rect3315-92-7" width="1" height="1" x="26" y="93"/>
        </g>
      </g>
    </g>
    <g id="normal-top">
      <rect style="opacity:0;fill:#ff00ff;fill-opacity:0;stroke:none;stroke-width:0.64031243" id="rect4058-8-9" width="18" height="3" x="28" y="70"/>
      <g id="g4387-9-2">
        <rect style="fill:currentColor;fill-opacity:0.333;stroke:none;stroke-width:0.64031243" id="rect4002-7-2" width="18" height="2" x="28" y="71" class="ColorScheme-ButtonBackground"/>
        <g id="g4309-3-8">
          <rect style="fill:#000000;fill-opacity:0.749;stroke:none;stroke-width:0.64031243" id="rect3259-6-9" width="18" height="1" x="28" y="71"/>
          <rect style="fill:#ffffff;fill-opacity:0.667;stroke:none;stroke-width:0.64031243" id="rect3295-1-7" width="18" height="1" x="28" y="72"/>
        </g>
      </g>
    </g>
    <g id="normal-left">
      <rect style="opacity:0;fill:#ff00ff;fill-opacity:0;stroke:none;stroke-width:0.64031243" id="rect4062-9-6" width="3" height="18" x="24" y="74"/>
      <g id="g4395-3-1">
        <rect style="fill:currentColor;fill-opacity:0.333;stroke:none;stroke-width:0.64031243" id="rect4006-1-2" width="2" height="18" x="25" y="74" class="ColorScheme-ButtonBackground"/>
        <g id="g4315-9-9">
          <rect transform="rotate(90)" style="fill:#000000;fill-opacity:0.749;stroke:none;stroke-width:0.64031243" id="rect3259-5-4-3" width="18" height="1" x="74" y="-26"/>
          <rect transform="rotate(90)" style="fill:#ffffff;fill-opacity:0.667;stroke:none;stroke-width:0.64031243" id="rect3295-2-7-1" width="18" height="1" x="74" y="-27"/>
        </g>
      </g>
    </g>
    <g id="normal-right">
      <rect style="opacity:0;fill:#ff00ff;fill-opacity:0;stroke:none;stroke-width:0.64031243" id="rect4066-4-4" width="3" height="18" x="47" y="74"/>
      <g id="g4403-5-7">
        <rect style="fill:currentColor;fill-opacity:0.333;stroke:none;stroke-width:0.64031243" id="rect4012-0-8" width="2" height="18" x="47" y="74" class="ColorScheme-ButtonBackground"/>
        <g id="g4321-3-4">
          <rect transform="rotate(90)" style="fill:#000000;fill-opacity:0.749;stroke:none;stroke-width:0.64031243" id="rect3259-3-6-5" width="18" height="1" x="74" y="-49"/>
          <rect transform="rotate(90)" style="fill:#000000;fill-opacity:0.537;stroke:none;stroke-width:0.64031243" id="rect3342-2-10-0" width="18" height="1" x="74" y="-48"/>
        </g>
      </g>
    </g>
    <g id="normal-bottom">
      <rect style="opacity:0;fill:#ff00ff;fill-opacity:0;stroke:none;stroke-width:0.64031243" id="rect4072-3-6" width="18" height="3" x="28" y="93"/>
      <g id="g4411-2-1">
        <rect style="fill:currentColor;fill-opacity:0.333;stroke:none;stroke-width:0.64031243" id="rect4016-0-0" width="18" height="2" x="28" y="93" class="ColorScheme-ButtonBackground"/>
        <g id="g4327-6-6">
          <rect style="fill:#000000;fill-opacity:0.749;stroke:none;stroke-width:0.64031243" id="rect3259-56-15-3" width="18" height="1" x="28" y="94"/>
          <rect style="fill:#000000;fill-opacity:0.537;stroke:none;stroke-width:0.64031243" id="rect3342-5-2" width="18" height="1" x="28" y="93"/>
        </g>
      </g>
    </g>
    <rect y="74" x="140" height="18" width="18" id="attention-center" style="fill:#ff8000;fill-opacity:1;stroke:none"/>
    <g id="attention-topleft">
      <rect style="opacity:0;fill:#ff00ff;fill-opacity:0;stroke:none" id="rect4056-7-75" width="3" height="3" x="136" y="70"/>
      <rect y="71" x="137" height="2" width="2" id="rect4000-3-8" style="fill:#ff8000;fill-opacity:1;stroke:none"/>
      <g id="g4285-5-8">
        <path id="rect3222-62-3" d="m 137,71 c 0,0 0,1 0,1 0,0 0,1 0,1 0,0 1,0 1,0 0,0 0,-1 0,-1 0,0 1,0 1,0 0,0 0,-1 0,-1 0,0 -2,0 -2,0" style="fill:#800100;fill-opacity:1;stroke:none;font-variant-east_asian:normal;opacity:1;vector-effect:none;stroke-width:0.78315598;stroke-linecap:square;stroke-linejoin:miter;stroke-miterlimit:8.30000019;stroke-dasharray:none;stroke-dashoffset:0;stroke-opacity:1;marker:none" inkscape:connector-curvature="0"/>
        <rect y="72" x="138" height="1" width="1" id="rect3293-9-1" style="fill:#ffd757;fill-opacity:1;stroke:none;font-variant-east_asian:normal;opacity:1;vector-effect:none;stroke-width:0.78315598;stroke-linecap:square;stroke-linejoin:miter;stroke-miterlimit:8.30000019;stroke-dasharray:none;stroke-dashoffset:0;stroke-opacity:1;marker:none"/>
      </g>
    </g>
    <g id="attention-bottomright">
      <rect style="opacity:0;fill:#ff00ff;fill-opacity:0;stroke:none" id="rect4074-2-9" width="3" height="3" x="159" y="93"/>
      <rect y="93" x="159" height="2" width="2" id="rect4020-0-4" style="fill:#ff8000;fill-opacity:1;stroke:none"/>
      <g id="g4291-9-3">
        <path id="rect3222-7-3-3" d="m 161,95 c 0,0 0,-1 0,-1 0,0 0,-1 0,-1 0,0 -1,0 -1,0 0,0 0,1 0,1 0,0 -1,0 -1,0 0,0 0,1 0,1 0,0 2,0 2,0" style="fill:#800100;fill-opacity:1;stroke:none;font-variant-east_asian:normal;opacity:1;vector-effect:none;stroke-width:0.78315598;stroke-linecap:square;stroke-linejoin:miter;stroke-miterlimit:8.30000019;stroke-dasharray:none;stroke-dashoffset:0;stroke-opacity:1;marker:none" inkscape:connector-curvature="0"/>
        <rect y="93" x="159" height="1" width="1" id="rect3315-9-60-38" style="fill:#d65700;fill-opacity:1;stroke:none;font-variant-east_asian:normal;opacity:1;vector-effect:none;stroke-width:0.78315598;stroke-linecap:square;stroke-linejoin:miter;stroke-miterlimit:8.30000019;stroke-dasharray:none;stroke-dashoffset:0;stroke-opacity:1;marker:none"/>
      </g>
    </g>
    <g id="attention-topright">
      <rect style="opacity:0;fill:#ff00ff;fill-opacity:0;stroke:none" id="rect4060-2-48" width="3" height="3" x="159" y="70"/>
      <rect y="71" x="159" height="2" width="2" id="rect4004-1-8" style="fill:#ff8000;fill-opacity:1;stroke:none"/>
      <g id="g4297-8-9">
        <path id="rect3222-3-7-77" d="m 161,71 c 0,0 0,1 0,1 0,0 0,1 0,1 0,0 -1,0 -1,0 0,0 0,-1 0,-1 0,0 -1,0 -1,0 0,0 0,-1 0,-1 0,0 2,0 2,0" style="fill:#800100;fill-opacity:1;stroke:none;font-variant-east_asian:normal;opacity:1;vector-effect:none;stroke-width:0.78315598;stroke-linecap:square;stroke-linejoin:miter;stroke-miterlimit:8.30000019;stroke-dasharray:none;stroke-dashoffset:0;stroke-opacity:1;marker:none" inkscape:connector-curvature="0"/>
        <rect y="72" x="159" height="1" width="1" id="rect3315-1-9-6" style="fill:#d65700;fill-opacity:1;stroke:none;font-variant-east_asian:normal;opacity:1;vector-effect:none;stroke-width:0.78315598;stroke-linecap:square;stroke-linejoin:miter;stroke-miterlimit:8.30000019;stroke-dasharray:none;stroke-dashoffset:0;stroke-opacity:1;marker:none"/>
      </g>
    </g>
    <g id="attention-bottomleft">
      <rect style="opacity:0;fill:#ff00ff;fill-opacity:0;stroke:none" id="rect4068-0-3" width="3" height="3" x="136" y="93"/>
      <rect y="93" x="137" height="2" width="2" id="rect4014-3-09" style="fill:#ff8000;fill-opacity:1;stroke:none"/>
      <g id="g4303-7-25">
        <path id="rect3222-6-5-40" d="m 137,95 c 0,0 0,-1 0,-1 0,0 0,-1 0,-1 0,0 1,0 1,0 0,0 0,1 0,1 0,0 1,0 1,0 0,0 0,1 0,1 0,0 -2,0 -2,0" style="fill:#800100;fill-opacity:1;stroke:none;font-variant-east_asian:normal;opacity:1;vector-effect:none;stroke-width:0.78315598;stroke-linecap:square;stroke-linejoin:miter;stroke-miterlimit:8.30000019;stroke-dasharray:none;stroke-dashoffset:0;stroke-opacity:1;marker:none" inkscape:connector-curvature="0"/>
        <rect y="93" x="138" height="1" width="1" id="rect3315-92-59" style="fill:#d65700;fill-opacity:1;stroke:none;font-variant-east_asian:normal;opacity:1;vector-effect:none;stroke-width:0.78315598;stroke-linecap:square;stroke-linejoin:miter;stroke-miterlimit:8.30000019;stroke-dasharray:none;stroke-dashoffset:0;stroke-opacity:1;marker:none"/>
      </g>
    </g>
    <g id="attention-top">
      <rect style="opacity:0;fill:#ff00ff;fill-opacity:0;stroke:none;stroke-width:0.64031243" id="rect4058-8-6" width="18" height="3" x="140" y="70"/>
      <rect y="71" x="140" height="2" width="18" id="rect4002-7-22" style="fill:#ff8000;fill-opacity:1;stroke:none;stroke-width:0.64031243"/>
      <g id="g4309-3-4">
        <rect y="71" x="140" height="1" width="18" id="rect3259-6-7" style="fill:#800100;fill-opacity:1;stroke:none;stroke-width:0.78315598;font-variant-east_asian:normal;opacity:1;vector-effect:none;stroke-linecap:square;stroke-linejoin:miter;stroke-miterlimit:8.30000019;stroke-dasharray:none;stroke-dashoffset:0;stroke-opacity:1;marker:none"/>
        <rect y="72" x="140" height="1" width="18" id="rect3295-1-75" style="fill:#ffd757;fill-opacity:1;stroke:none;stroke-width:0.78315598;font-variant-east_asian:normal;opacity:1;vector-effect:none;stroke-linecap:square;stroke-linejoin:miter;stroke-miterlimit:8.30000019;stroke-dasharray:none;stroke-dashoffset:0;stroke-opacity:1;marker:none"/>
      </g>
    </g>
    <g id="attention-left">
      <rect style="opacity:0;fill:#ff00ff;fill-opacity:0;stroke:none;stroke-width:0.64031243" id="rect4062-9-8" width="3" height="18" x="136" y="74"/>
      <rect y="74" x="137" height="18" width="2" id="rect4006-1-8" style="fill:#ff8000;fill-opacity:1;stroke:none;stroke-width:0.64031243"/>
      <g id="g4315-9-93">
        <rect transform="rotate(90)" y="-138" x="74" height="1" width="18" id="rect3259-5-4-6" style="fill:#800100;fill-opacity:1;stroke:none;stroke-width:0.78315598;font-variant-east_asian:normal;opacity:1;vector-effect:none;stroke-linecap:square;stroke-linejoin:miter;stroke-miterlimit:8.30000019;stroke-dasharray:none;stroke-dashoffset:0;stroke-opacity:1;marker:none"/>
        <rect transform="rotate(90)" y="-139" x="74" height="1" width="18" id="rect3295-2-7-80" style="fill:#ffd757;fill-opacity:1;stroke:none;stroke-width:0.78315598;font-variant-east_asian:normal;opacity:1;vector-effect:none;stroke-linecap:square;stroke-linejoin:miter;stroke-miterlimit:8.30000019;stroke-dasharray:none;stroke-dashoffset:0;stroke-opacity:1;marker:none"/>
      </g>
    </g>
    <g id="attention-right">
      <rect style="opacity:0;fill:#ff00ff;fill-opacity:0;stroke:none;stroke-width:0.64031243" id="rect4066-4-10" width="3" height="18" x="159" y="74"/>
      <rect y="74" x="159" height="18" width="2" id="rect4012-0-1" style="fill:#ff8000;fill-opacity:1;stroke:none;stroke-width:0.64031243"/>
      <g id="g4321-3-1">
        <rect transform="rotate(90)" y="-161" x="74" height="1" width="18" id="rect3259-3-6-0" style="fill:#800100;fill-opacity:1;stroke:none;stroke-width:0.78315598;font-variant-east_asian:normal;opacity:1;vector-effect:none;stroke-linecap:square;stroke-linejoin:miter;stroke-miterlimit:8.30000019;stroke-dasharray:none;stroke-dashoffset:0;stroke-opacity:1;marker:none"/>
        <rect transform="rotate(90)" y="-160" x="74" height="1" width="18" id="rect3342-2-10-8" style="fill:#d65700;fill-opacity:1;stroke:none;stroke-width:0.78315598;font-variant-east_asian:normal;opacity:1;vector-effect:none;stroke-linecap:square;stroke-linejoin:miter;stroke-miterlimit:8.30000019;stroke-dasharray:none;stroke-dashoffset:0;stroke-opacity:1;marker:none"/>
      </g>
    </g>
    <g id="attention-bottom">
      <rect style="opacity:0;fill:#ff00ff;fill-opacity:0;stroke:none;stroke-width:0.64031243" id="rect4072-3-06" width="18" height="3" x="140" y="93"/>
      <rect y="93" x="140" height="2" width="18" id="rect4016-0-6" style="fill:#ff8000;fill-opacity:1;stroke:none;stroke-width:0.64031243"/>
      <g id="g4327-6-2">
        <rect y="94" x="140" height="1" width="18" id="rect3259-56-15-5" style="fill:#800100;fill-opacity:1;stroke:none;stroke-width:0.78315598;font-variant-east_asian:normal;opacity:1;vector-effect:none;stroke-linecap:square;stroke-linejoin:miter;stroke-miterlimit:8.30000019;stroke-dasharray:none;stroke-dashoffset:0;stroke-opacity:1;marker:none"/>
        <rect y="93" x="140" height="1" width="18" id="rect3342-5-86" style="fill:#d65700;fill-opacity:1;stroke:none;stroke-width:0.78315598;font-variant-east_asian:normal;opacity:1;vector-effect:none;stroke-linecap:square;stroke-linejoin:miter;stroke-miterlimit:8.30000019;stroke-dasharray:none;stroke-dashoffset:0;stroke-opacity:1;marker:none"/>
      </g>
    </g>
    <g id="focus-center">
      <rect style="fill:currentColor;fill-opacity:0.333;stroke:none;stroke-width:0.41" id="rect7000" width="18" height="18" x="84" y="74" class="ColorScheme-ButtonBackground"/>
      <rect style="opacity:0.271;fill:#000000;fill-opacity:1;stroke:none;stroke-width:0.41" id="rect5737" width="18" height="18" x="84" y="74"/>
    </g>
    <g id="focus-topleft">
      <rect style="opacity:0;fill:#ff00ff;fill-opacity:0;stroke:none" id="rect4056" width="3" height="3" x="80" y="70"/>
      <rect y="71" x="81" height="2" width="2" id="rect4000" style="fill:currentColor;fill-opacity:0.333;stroke:none" class="ColorScheme-ButtonBackground"/>
      <path style="fill:#000000;fill-opacity:0.749;stroke:none" d="m 81,71 c 0,0 0,1 0,1 0,0 0,1 0,1 0,0 1,0 1,0 0,0 0,-1 0,-1 0,0 1,0 1,0 0,0 0,-1 0,-1 0,0 -2,0 -2,0" id="rect3222-0" inkscape:connector-curvature="0"/>
      <rect style="opacity:0.271;fill:#000000;fill-opacity:1;stroke:none" id="rect3293-2" width="1" height="1" x="82" y="72"/>
    </g>
    <g id="focus-bottomright">
      <rect style="opacity:0;fill:#ff00ff;fill-opacity:0;stroke:none" id="rect4074" width="3" height="3" x="103" y="93"/>
      <rect y="93" x="103" height="2" width="2" id="rect4020" style="fill:currentColor;fill-opacity:0.333;stroke:none" class="ColorScheme-ButtonBackground"/>
      <path style="fill:#000000;fill-opacity:0.749;stroke:none" d="m 105,95 c 0,0 0,-1 0,-1 0,0 0,-1 0,-1 0,0 -1,0 -1,0 0,0 0,1 0,1 0,0 -1,0 -1,0 0,0 0,1 0,1 0,0 2,0 2,0" id="rect3222-7-1" inkscape:connector-curvature="0"/>
      <rect style="opacity:0.271;fill:#000000;fill-opacity:1;stroke:none" id="rect3315-9-1" width="1" height="1" x="103" y="93"/>
      <path id="rect3214-7-0" d="m 106,96 c 0,0 0,-1 0,-1 0,0 0,-2 0,-2 0,0 -1,0 -1,0 0,0 0,2 0,2 0,0 -2,0 -2,0 0,0 0,1 0,1 0,0 3,0 3,0" style="fill:#ffffff;fill-opacity:0.667;stroke:none" inkscape:connector-curvature="0"/>
    </g>
    <g id="focus-topright">
      <rect style="opacity:0;fill:#ff00ff;fill-opacity:0;stroke:none" id="rect4060" width="3" height="3" x="103" y="70"/>
      <rect y="71" x="103" height="2" width="2" id="rect4004" style="fill:currentColor;fill-opacity:0.333;stroke:none" class="ColorScheme-ButtonBackground"/>
      <path style="fill:#000000;fill-opacity:0.749;stroke:none" d="m 105,71 c 0,0 0,1 0,1 0,0 0,1 0,1 0,0 -1,0 -1,0 0,0 0,-1 0,-1 0,0 -1,0 -1,0 0,0 0,-1 0,-1 0,0 2,0 2,0" id="rect3222-3-0" inkscape:connector-curvature="0"/>
      <rect style="opacity:0.271;fill:#000000;fill-opacity:1;stroke:none" id="rect3315-1-6" width="1" height="1" x="103" y="72"/>
      <rect y="70" x="105" height="3" width="1" id="rect3251-4" style="fill:#ffffff;fill-opacity:0.667;stroke:none"/>
    </g>
    <g id="focus-bottomleft">
      <rect style="opacity:0;fill:#ff00ff;fill-opacity:0;stroke:none" id="rect4068" width="3" height="3" x="80" y="93"/>
      <rect y="93" x="81" height="2" width="2" id="rect4014" style="fill:currentColor;fill-opacity:0.333;stroke:none" class="ColorScheme-ButtonBackground"/>
      <path style="fill:#000000;fill-opacity:0.749;stroke:none" d="m 81,95 c 0,0 0,-1 0,-1 0,0 0,-1 0,-1 0,0 1,0 1,0 0,0 0,1 0,1 0,0 1,0 1,0 0,0 0,1 0,1 0,0 -2,0 -2,0" id="rect3222-6-8" inkscape:connector-curvature="0"/>
      <rect style="opacity:0.271;fill:#000000;fill-opacity:1;stroke:none" id="rect3315-6" width="1" height="1" x="82" y="93"/>
      <rect transform="rotate(90)" y="-83" x="95" height="3" width="1" id="rect3251-3-2" style="fill:#ffffff;fill-opacity:0.667;stroke:none"/>
    </g>
    <g id="focus-top">
      <rect style="opacity:0;fill:#ff00ff;fill-opacity:0;stroke:none;stroke-width:0.64031243" id="rect4058" width="18" height="3" x="84" y="70"/>
      <rect y="71" x="84" height="2" width="18" id="rect4002" style="fill:currentColor;fill-opacity:0.333;stroke:none;stroke-width:0.64031243" class="ColorScheme-ButtonBackground"/>
      <rect style="fill:#000000;fill-opacity:0.749;stroke:none;stroke-width:0.64031243" id="rect3259-2" width="18" height="1" x="84" y="71"/>
      <rect style="opacity:0.271;fill:#000000;fill-opacity:1;stroke:none;stroke-width:0.64031243" id="rect3295-4" width="18" height="1" x="84" y="72"/>
    </g>
    <g id="focus-left">
      <rect style="opacity:0;fill:#ff00ff;fill-opacity:0;stroke:none;stroke-width:0.64031243" id="rect4062" width="3" height="18" x="80" y="74"/>
      <rect y="74" x="81" height="18" width="2" id="rect4006" style="fill:currentColor;fill-opacity:0.333;stroke:none;stroke-width:0.64031243" class="ColorScheme-ButtonBackground"/>
      <rect transform="rotate(90)" style="fill:#000000;fill-opacity:0.749;stroke:none;stroke-width:0.64031243" id="rect3259-5-9" width="18" height="1" x="74" y="-82"/>
      <rect transform="rotate(90)" style="opacity:0.271;fill:#000000;fill-opacity:1;stroke:none;stroke-width:0.64031243" id="rect3295-2-9" width="18" height="1" x="74" y="-83"/>
    </g>
    <g id="focus-right">
      <rect style="opacity:0;fill:#ff00ff;fill-opacity:0;stroke:none;stroke-width:0.64031243" id="rect4066" width="3" height="18" x="103" y="74"/>
      <rect y="74" x="103" height="18" width="2" id="rect4012" style="fill:currentColor;fill-opacity:0.333;stroke:none;stroke-width:0.64031243" class="ColorScheme-ButtonBackground"/>
      <rect transform="rotate(90)" style="fill:#000000;fill-opacity:0.749;stroke:none;stroke-width:0.64031243" id="rect3259-3-3" width="18" height="1" x="74" y="-105"/>
      <rect transform="rotate(90)" style="opacity:0.271;fill:#000000;fill-opacity:1;stroke:none;stroke-width:0.64031243" id="rect3342-2-1" width="18" height="1" x="74" y="-104"/>
      <rect transform="rotate(90)" y="-106" x="74" height="1" width="18" id="rect3303-2-1" style="fill:#ffffff;fill-opacity:0.667;stroke:none;stroke-width:0.64031243"/>
    </g>
    <g id="focus-bottom">
      <rect style="opacity:0;fill:#ff00ff;fill-opacity:0;stroke:none;stroke-width:0.64031243" id="rect4072" width="18" height="3" x="84" y="93"/>
      <rect y="93" x="84" height="2" width="18" id="rect4016" style="fill:currentColor;fill-opacity:0.333;stroke:none;stroke-width:0.64031243" class="ColorScheme-ButtonBackground"/>
      <rect style="fill:#000000;fill-opacity:0.749;stroke:none;stroke-width:0.64031243" id="rect3259-56-4" width="18" height="1" x="84" y="94"/>
      <rect style="opacity:0.271;fill:#000000;fill-opacity:1;stroke:none;stroke-width:0.64031243" id="rect3342-0" width="18" height="1" x="84" y="93"/>
      <rect y="95" x="84" height="1" width="18" id="rect3303-9-3" style="fill:#ffffff;fill-opacity:0.667;stroke:none;stroke-width:0.64031243"/>
    </g>
    <g id="hover-topleft">
      <rect style="opacity:0;fill:#ff00ff;fill-opacity:0;stroke:none" id="rect4056-7-7-7" width="3" height="3" x="52" y="70"/>
      <g id="g4355-5-5-5">
        <rect style="fill:currentColor;fill-opacity:0.333;stroke:none" id="rect4000-3-3-3" width="2" height="2" x="53" y="71" class="ColorScheme-ButtonBackground"/>
        <g id="g4285-5-5-5">
          <path style="fill:#000000;fill-opacity:0.749;stroke:none" d="m 53,71 c 0,0 0,1 0,1 0,0 0,1 0,1 0,0 1,0 1,0 0,0 0,-1 0,-1 0,0 1,0 1,0 0,0 0,-1 0,-1 0,0 -2,0 -2,0" id="rect3222-62-6-6" inkscape:connector-curvature="0"/>
          <rect style="fill:#ffffff;fill-opacity:0.667;stroke:none" id="rect3293-9-2-2" width="1" height="1" x="54" y="72"/>
        </g>
      </g>
    </g>
    <g id="hover-bottomright">
      <rect style="opacity:0;fill:#ff00ff;fill-opacity:0;stroke:none" id="rect4074-2-1-1" width="3" height="3" x="75" y="93"/>
      <g id="g4363-7-2-2">
        <rect style="fill:currentColor;fill-opacity:0.333;stroke:none" id="rect4020-0-7-7" width="2" height="2" x="75" y="93" class="ColorScheme-ButtonBackground"/>
        <g id="g4291-9-0-0">
          <path style="fill:#000000;fill-opacity:0.749;stroke:none" d="m 77,95 c 0,0 0,-1 0,-1 0,0 0,-1 0,-1 0,0 -1,0 -1,0 0,0 0,1 0,1 0,0 -1,0 -1,0 0,0 0,1 0,1 0,0 2,0 2,0" id="rect3222-7-3-9-9" inkscape:connector-curvature="0"/>
          <rect style="fill:#000000;fill-opacity:0.537;stroke:none" id="rect3315-9-60-3-3" width="1" height="1" x="75" y="93"/>
        </g>
      </g>
    </g>
    <g id="hover-topright">
      <rect style="opacity:0;fill:#ff00ff;fill-opacity:0;stroke:none" id="rect4060-2-0-0" width="3" height="3" x="75" y="70"/>
      <g id="g4371-6-6-6">
        <rect style="fill:currentColor;fill-opacity:0.333;stroke:none" id="rect4004-1-2-2" width="2" height="2" x="75" y="71" class="ColorScheme-ButtonBackground"/>
        <g id="g4297-8-6-6">
          <path style="fill:#000000;fill-opacity:0.749;stroke:none" d="m 77,71 c 0,0 0,1 0,1 0,0 0,1 0,1 0,0 -1,0 -1,0 0,0 0,-1 0,-1 0,0 -1,0 -1,0 0,0 0,-1 0,-1 0,0 2,0 2,0" id="rect3222-3-7-1-1" inkscape:connector-curvature="0"/>
          <rect style="fill:#000000;fill-opacity:0.537;stroke:none" id="rect3315-1-9-8-8" width="1" height="1" x="75" y="72"/>
        </g>
      </g>
    </g>
    <g id="hover-bottomleft">
      <rect style="opacity:0;fill:#ff00ff;fill-opacity:0;stroke:none" id="rect4068-0-9-9" width="3" height="3" x="52" y="93"/>
      <g id="g4379-2-2-2">
        <rect style="fill:currentColor;fill-opacity:0.333;stroke:none" id="rect4014-3-0-0" width="2" height="2" x="53" y="93" class="ColorScheme-ButtonBackground"/>
        <g id="g4303-7-2-2">
          <path style="fill:#000000;fill-opacity:0.749;stroke:none" d="m 53,95 c 0,0 0,-1 0,-1 0,0 0,-1 0,-1 0,0 1,0 1,0 0,0 0,1 0,1 0,0 1,0 1,0 0,0 0,1 0,1 0,0 -2,0 -2,0" id="rect3222-6-5-3-3" inkscape:connector-curvature="0"/>
          <rect style="fill:#000000;fill-opacity:0.537;stroke:none" id="rect3315-92-7-7" width="1" height="1" x="54" y="93"/>
        </g>
      </g>
    </g>
    <g id="hover-top">
      <rect style="opacity:0;fill:#ff00ff;fill-opacity:0;stroke:none;stroke-width:0.64031243" id="rect4058-8-9-9" width="18" height="3" x="56" y="70"/>
      <g id="g4387-9-2-2">
        <rect style="fill:currentColor;fill-opacity:0.333;stroke:none;stroke-width:0.64031243" id="rect4002-7-2-2" width="18" height="2" x="56" y="71" class="ColorScheme-ButtonBackground"/>
        <g id="g4309-3-8-8">
          <rect style="fill:#000000;fill-opacity:0.749;stroke:none;stroke-width:0.64031243" id="rect3259-6-9-9" width="18" height="1" x="56" y="71"/>
          <rect style="fill:#ffffff;fill-opacity:0.667;stroke:none;stroke-width:0.64031243" id="rect3295-1-7-7" width="18" height="1" x="56" y="72"/>
        </g>
      </g>
    </g>
    <g id="hover-left">
      <rect style="opacity:0;fill:#ff00ff;fill-opacity:0;stroke:none;stroke-width:0.64031243" id="rect4062-9-6-6" width="3" height="18" x="52" y="74"/>
      <g id="g4395-3-1-1">
        <rect style="fill:currentColor;fill-opacity:0.333;stroke:none;stroke-width:0.64031243" id="rect4006-1-2-2" width="2" height="18" x="53" y="74" class="ColorScheme-ButtonBackground"/>
        <g id="g4315-9-9-9">
          <rect transform="rotate(90)" style="fill:#000000;fill-opacity:0.749;stroke:none;stroke-width:0.64031243" id="rect3259-5-4-3-3" width="18" height="1" x="74" y="-54"/>
          <rect transform="rotate(90)" style="fill:#ffffff;fill-opacity:0.667;stroke:none;stroke-width:0.64031243" id="rect3295-2-7-1-1" width="18" height="1" x="74" y="-55"/>
        </g>
      </g>
    </g>
    <g id="hover-right">
      <rect style="opacity:0;fill:#ff00ff;fill-opacity:0;stroke:none;stroke-width:0.64031243" id="rect4066-4-4-4" width="3" height="18" x="75" y="74"/>
      <g id="g4403-5-7-7">
        <rect style="fill:currentColor;fill-opacity:0.333;stroke:none;stroke-width:0.64031243" id="rect4012-0-8-8" width="2" height="18" x="75" y="74" class="ColorScheme-ButtonBackground"/>
        <g id="g4321-3-4-4">
          <rect transform="rotate(90)" style="fill:#000000;fill-opacity:0.749;stroke:none;stroke-width:0.64031243" id="rect3259-3-6-5-5" width="18" height="1" x="74" y="-77"/>
          <rect transform="rotate(90)" style="fill:#000000;fill-opacity:0.537;stroke:none;stroke-width:0.64031243" id="rect3342-2-10-0-0" width="18" height="1" x="74" y="-76"/>
        </g>
      </g>
    </g>
    <g id="hover-bottom">
      <rect style="opacity:0;fill:#ff00ff;fill-opacity:0;stroke:none;stroke-width:0.64031243" id="rect4072-3-6-6" width="18" height="3" x="56" y="93"/>
      <g id="g4411-2-1-1">
        <rect style="fill:currentColor;fill-opacity:0.333;stroke:none;stroke-width:0.64031243" id="rect4016-0-0-0" width="18" height="2" x="56" y="93" class="ColorScheme-ButtonBackground"/>
        <g id="g4327-6-6-6">
          <rect style="fill:#000000;fill-opacity:0.749;stroke:none;stroke-width:0.64031243" id="rect3259-56-15-3-3" width="18" height="1" x="56" y="94"/>
          <rect style="fill:#000000;fill-opacity:0.537;stroke:none;stroke-width:0.64031243" id="rect3342-5-2-2" width="18" height="1" x="56" y="93"/>
        </g>
      </g>
    </g>
    <rect y="74" x="112" height="18" width="18" id="minimized-center" style="fill:currentColor;fill-opacity:0.333;stroke:none" class="ColorScheme-ButtonBackground"/>
    <g id="minimized-topleft">
      <rect style="opacity:0;fill:#ff00ff;fill-opacity:0;stroke:none" id="rect4056-7-7-7-1" width="3" height="3" x="108" y="70"/>
      <g id="g4355-5-5-5-5">
        <rect style="fill:currentColor;fill-opacity:0.333;stroke:none" id="rect4000-3-3-3-5" width="2" height="2" x="109" y="71" class="ColorScheme-ButtonBackground"/>
        <g id="g4285-5-5-5-4">
          <path style="fill:#000000;fill-opacity:0.749;stroke:none" d="m 109,71 c 0,0 0,1 0,1 0,0 0,1 0,1 0,0 1,0 1,0 0,0 0,-1 0,-1 0,0 1,0 1,0 0,0 0,-1 0,-1 0,0 -2,0 -2,0" id="rect3222-62-6-6-7" inkscape:connector-curvature="0"/>
          <rect style="fill:#ffffff;fill-opacity:0.667;stroke:none" id="rect3293-9-2-2-6" width="1" height="1" x="110" y="72"/>
        </g>
      </g>
    </g>
    <g id="minimized-bottomright">
      <rect style="opacity:0;fill:#ff00ff;fill-opacity:0;stroke:none" id="rect4074-2-1-1-6" width="3" height="3" x="131" y="93"/>
      <g id="g4363-7-2-2-9">
        <rect style="fill:currentColor;fill-opacity:0.333;stroke:none" id="rect4020-0-7-7-3" width="2" height="2" x="131" y="93" class="ColorScheme-ButtonBackground"/>
        <g id="g4291-9-0-0-7">
          <path style="fill:#000000;fill-opacity:0.749;stroke:none" d="m 133,95 c 0,0 0,-1 0,-1 0,0 0,-1 0,-1 0,0 -1,0 -1,0 0,0 0,1 0,1 0,0 -1,0 -1,0 0,0 0,1 0,1 0,0 2,0 2,0" id="rect3222-7-3-9-9-4" inkscape:connector-curvature="0"/>
          <rect style="fill:#000000;fill-opacity:0.537;stroke:none" id="rect3315-9-60-3-3-5" width="1" height="1" x="131" y="93"/>
        </g>
      </g>
    </g>
    <g id="minimized-topright">
      <rect style="opacity:0;fill:#ff00ff;fill-opacity:0;stroke:none" id="rect4060-2-0-0-5" width="3" height="3" x="131" y="70"/>
      <g id="g4371-6-6-6-4">
        <rect style="fill:currentColor;fill-opacity:0.333;stroke:none" id="rect4004-1-2-2-7" width="2" height="2" x="131" y="71" class="ColorScheme-ButtonBackground"/>
        <g id="g4297-8-6-6-4">
          <path style="fill:#000000;fill-opacity:0.749;stroke:none" d="m 133,71 c 0,0 0,1 0,1 0,0 0,1 0,1 0,0 -1,0 -1,0 0,0 0,-1 0,-1 0,0 -1,0 -1,0 0,0 0,-1 0,-1 0,0 2,0 2,0" id="rect3222-3-7-1-1-4" inkscape:connector-curvature="0"/>
          <rect style="fill:#000000;fill-opacity:0.537;stroke:none" id="rect3315-1-9-8-8-3" width="1" height="1" x="131" y="72"/>
        </g>
      </g>
    </g>
    <g id="minimized-bottomleft">
      <rect style="opacity:0;fill:#ff00ff;fill-opacity:0;stroke:none" id="rect4068-0-9-9-7" width="3" height="3" x="108" y="93"/>
      <g id="g4379-2-2-2-8">
        <rect style="fill:currentColor;fill-opacity:0.333;stroke:none" id="rect4014-3-0-0-6" width="2" height="2" x="109" y="93" class="ColorScheme-ButtonBackground"/>
        <g id="g4303-7-2-2-8">
          <path style="fill:#000000;fill-opacity:0.749;stroke:none" d="m 109,95 c 0,0 0,-1 0,-1 0,0 0,-1 0,-1 0,0 1,0 1,0 0,0 0,1 0,1 0,0 1,0 1,0 0,0 0,1 0,1 0,0 -2,0 -2,0" id="rect3222-6-5-3-3-8" inkscape:connector-curvature="0"/>
          <rect style="fill:#000000;fill-opacity:0.537;stroke:none" id="rect3315-92-7-7-4" width="1" height="1" x="110" y="93"/>
        </g>
      </g>
    </g>
    <g id="minimized-top">
      <rect style="opacity:0;fill:#ff00ff;fill-opacity:0;stroke:none;stroke-width:0.64031243" id="rect4058-8-9-9-1" width="18" height="3" x="112" y="70"/>
      <g id="g4387-9-2-2-4">
        <rect style="fill:currentColor;fill-opacity:0.333;stroke:none;stroke-width:0.64031243" id="rect4002-7-2-2-9" width="18" height="2" x="112" y="71" class="ColorScheme-ButtonBackground"/>
        <g id="g4309-3-8-8-2">
          <rect style="fill:#000000;fill-opacity:0.749;stroke:none;stroke-width:0.64031243" id="rect3259-6-9-9-0" width="18" height="1" x="112" y="71"/>
          <rect style="fill:#ffffff;fill-opacity:0.667;stroke:none;stroke-width:0.64031243" id="rect3295-1-7-7-6" width="18" height="1" x="112" y="72"/>
        </g>
      </g>
    </g>
    <g id="minimized-left">
      <rect style="opacity:0;fill:#ff00ff;fill-opacity:0;stroke:none;stroke-width:0.64031243" id="rect4062-9-6-6-9" width="3" height="18" x="108" y="74"/>
      <g id="g4395-3-1-1-2">
        <rect style="fill:currentColor;fill-opacity:0.333;stroke:none;stroke-width:0.64031243" id="rect4006-1-2-2-6" width="2" height="18" x="109" y="74" class="ColorScheme-ButtonBackground"/>
        <g id="g4315-9-9-9-6">
          <rect transform="rotate(90)" style="fill:#000000;fill-opacity:0.749;stroke:none;stroke-width:0.64031243" id="rect3259-5-4-3-3-4" width="18" height="1" x="74" y="-110"/>
          <rect transform="rotate(90)" style="fill:#ffffff;fill-opacity:0.667;stroke:none;stroke-width:0.64031243" id="rect3295-2-7-1-1-9" width="18" height="1" x="74" y="-111"/>
        </g>
      </g>
    </g>
    <g id="minimized-right">
      <rect style="opacity:0;fill:#ff00ff;fill-opacity:0;stroke:none;stroke-width:0.64031243" id="rect4066-4-4-4-0" width="3" height="18" x="131" y="74"/>
      <g id="g4403-5-7-7-4">
        <rect style="fill:currentColor;fill-opacity:0.333;stroke:none;stroke-width:0.64031243" id="rect4012-0-8-8-8" width="2" height="18" x="131" y="74" class="ColorScheme-ButtonBackground"/>
        <g id="g4321-3-4-4-7">
          <rect transform="rotate(90)" style="fill:#000000;fill-opacity:0.749;stroke:none;stroke-width:0.64031243" id="rect3259-3-6-5-5-1" width="18" height="1" x="74" y="-133"/>
          <rect transform="rotate(90)" style="fill:#000000;fill-opacity:0.537;stroke:none;stroke-width:0.64031243" id="rect3342-2-10-0-0-7" width="18" height="1" x="74" y="-132"/>
        </g>
      </g>
    </g>
    <g id="minimized-bottom">
      <rect style="opacity:0;fill:#ff00ff;fill-opacity:0;stroke:none;stroke-width:0.64031243" id="rect4072-3-6-6-7" width="18" height="3" x="112" y="93"/>
      <g id="g4411-2-1-1-2">
        <rect style="fill:currentColor;fill-opacity:0.333;stroke:none;stroke-width:0.64031243" id="rect4016-0-0-0-2" width="18" height="2" x="112" y="93" class="ColorScheme-ButtonBackground"/>
        <g id="g4327-6-6-6-6">
          <rect style="fill:#000000;fill-opacity:0.749;stroke:none;stroke-width:0.64031243" id="rect3259-56-15-3-3-1" width="18" height="1" x="112" y="94"/>
          <rect style="fill:#000000;fill-opacity:0.537;stroke:none;stroke-width:0.64031243" id="rect3342-5-2-2-0" width="18" height="1" x="112" y="93"/>
        </g>
      </g>
    </g>
    <rect y="74" x="168" height="18" width="18" id="progress-center" style="fill:currentColor;fill-opacity:1;stroke:none" class="ColorScheme-Highlight"/>
    <g id="progress-topleft">
      <rect style="opacity:0;fill:#ff00ff;fill-opacity:0;stroke:none" id="rect4056-7-75-7" width="3" height="3" x="164" y="70"/>
      <rect y="71" x="165" height="2" width="2" id="rect4000-3-8-5" style="fill:currentColor;fill-opacity:1;stroke:none" class="ColorScheme-Highlight"/>
      <g id="g4285-5-8-3">
        <path id="rect3222-62-3-5" d="m 165,71 c 0,0 0,1 0,1 0,0 0,1 0,1 0,0 1,0 1,0 0,0 0,-1 0,-1 0,0 1,0 1,0 0,0 0,-1 0,-1 0,0 -2,0 -2,0" style="fill:#000000;fill-opacity:0.749;stroke:none" inkscape:connector-curvature="0"/>
        <rect y="72" x="166" height="1" width="1" id="rect3293-9-1-6" style="fill:#ffffff;fill-opacity:1;stroke:none;font-variant-east_asian:normal;opacity:0.545;vector-effect:none;stroke-width:0.78315598;stroke-linecap:square;stroke-linejoin:miter;stroke-miterlimit:8.30000019;stroke-dasharray:none;stroke-dashoffset:0;stroke-opacity:1;marker:none"/>
      </g>
    </g>
    <g id="progress-bottomright">
      <rect style="opacity:0;fill:#ff00ff;fill-opacity:0;stroke:none" id="rect4074-2-9-9" width="3" height="3" x="187" y="93"/>
      <rect y="93" x="187" height="2" width="2" id="rect4020-0-4-1" style="fill:currentColor;fill-opacity:1;stroke:none" class="ColorScheme-Highlight"/>
      <g id="g4291-9-3-2">
        <path id="rect3222-7-3-3-7" d="m 189,95 c 0,0 0,-1 0,-1 0,0 0,-1 0,-1 0,0 -1,0 -1,0 0,0 0,1 0,1 0,0 -1,0 -1,0 0,0 0,1 0,1 0,0 2,0 2,0" style="fill:#000000;fill-opacity:0.749;stroke:none" inkscape:connector-curvature="0"/>
        <rect y="93" x="187" height="1" width="1" id="rect3315-9-60-38-0" style="fill:#000000;fill-opacity:0.537;stroke:none"/>
      </g>
    </g>
    <g id="progress-topright">
      <rect style="opacity:0;fill:#ff00ff;fill-opacity:0;stroke:none" id="rect4060-2-48-3" width="3" height="3" x="187" y="70"/>
      <rect y="71" x="187" height="2" width="2" id="rect4004-1-8-6" style="fill:currentColor;fill-opacity:1;stroke:none" class="ColorScheme-Highlight"/>
      <g id="g4297-8-9-0">
        <path id="rect3222-3-7-77-6" d="m 189,71 c 0,0 0,1 0,1 0,0 0,1 0,1 0,0 -1,0 -1,0 0,0 0,-1 0,-1 0,0 -1,0 -1,0 0,0 0,-1 0,-1 0,0 2,0 2,0" style="fill:#000000;fill-opacity:0.749;stroke:none" inkscape:connector-curvature="0"/>
        <rect y="72" x="187" height="1" width="1" id="rect3315-1-9-6-2" style="fill:#000000;fill-opacity:0.537;stroke:none"/>
      </g>
    </g>
    <g id="progress-bottomleft">
      <rect style="opacity:0;fill:#ff00ff;fill-opacity:0;stroke:none" id="rect4068-0-3-1" width="3" height="3" x="164" y="93"/>
      <rect y="93" x="165" height="2" width="2" id="rect4014-3-09-8" style="fill:currentColor;fill-opacity:1;stroke:none" class="ColorScheme-Highlight"/>
      <g id="g4303-7-25-7">
        <path id="rect3222-6-5-40-9" d="m 165,95 c 0,0 0,-1 0,-1 0,0 0,-1 0,-1 0,0 1,0 1,0 0,0 0,1 0,1 0,0 1,0 1,0 0,0 0,1 0,1 0,0 -2,0 -2,0" style="fill:#000000;fill-opacity:0.749;stroke:none" inkscape:connector-curvature="0"/>
        <rect y="93" x="166" height="1" width="1" id="rect3315-92-59-2" style="fill:#000000;fill-opacity:0.537;stroke:none"/>
      </g>
    </g>
    <g id="progress-top">
      <rect style="opacity:0;fill:#ff00ff;fill-opacity:0;stroke:none;stroke-width:0.64031243" id="rect4058-8-6-2" width="18" height="3" x="168" y="70"/>
      <rect y="71" x="168" height="2" width="18" id="rect4002-7-22-3" style="fill:currentColor;fill-opacity:1;stroke:none;stroke-width:0.64031243" class="ColorScheme-Highlight"/>
      <g id="g4309-3-4-7">
        <rect y="71" x="168" height="1" width="18" id="rect3259-6-7-5" style="fill:#000000;fill-opacity:0.749;stroke:none;stroke-width:0.64031243"/>
        <rect y="72" x="168" height="1" width="18" id="rect3295-1-75-9" style="fill:#ffffff;fill-opacity:1;stroke:none;stroke-width:0.78315598;font-variant-east_asian:normal;opacity:0.545;vector-effect:none;stroke-linecap:square;stroke-linejoin:miter;stroke-miterlimit:8.30000019;stroke-dasharray:none;stroke-dashoffset:0;stroke-opacity:1;marker:none"/>
      </g>
    </g>
    <g id="progress-left">
      <rect style="opacity:0;fill:#ff00ff;fill-opacity:0;stroke:none;stroke-width:0.64031243" id="rect4062-9-8-2" width="3" height="18" x="164" y="74"/>
      <rect y="74" x="165" height="18" width="2" id="rect4006-1-8-8" style="fill:currentColor;fill-opacity:1;stroke:none;stroke-width:0.64031243" class="ColorScheme-Highlight"/>
      <g id="g4315-9-93-9">
        <rect transform="rotate(90)" y="-166" x="74" height="1" width="18" id="rect3259-5-4-6-7" style="fill:#000000;fill-opacity:0.749;stroke:none;stroke-width:0.64031243"/>
        <rect transform="rotate(90)" y="-167" x="74" height="1" width="18" id="rect3295-2-7-80-3" style="fill:#ffffff;fill-opacity:1;stroke:none;stroke-width:0.78315598;font-variant-east_asian:normal;opacity:0.545;vector-effect:none;stroke-linecap:square;stroke-linejoin:miter;stroke-miterlimit:8.30000019;stroke-dasharray:none;stroke-dashoffset:0;stroke-opacity:1;marker:none"/>
      </g>
    </g>
    <g id="progress-right">
      <rect style="opacity:0;fill:#ff00ff;fill-opacity:0;stroke:none;stroke-width:0.64031243" id="rect4066-4-10-1" width="3" height="18" x="187" y="74"/>
      <rect y="74" x="187" height="18" width="2" id="rect4012-0-1-2" style="fill:currentColor;fill-opacity:1;stroke:none;stroke-width:0.64031243" class="ColorScheme-Highlight"/>
      <g id="g4321-3-1-9">
        <rect transform="rotate(90)" y="-189" x="74" height="1" width="18" id="rect3259-3-6-0-3" style="fill:#000000;fill-opacity:0.749;stroke:none;stroke-width:0.64031243"/>
        <rect transform="rotate(90)" y="-188" x="74" height="1" width="18" id="rect3342-2-10-8-1" style="fill:#000000;fill-opacity:0.537;stroke:none;stroke-width:0.64031243"/>
      </g>
    </g>
    <g id="progress-bottom">
      <rect style="opacity:0;fill:#ff00ff;fill-opacity:0;stroke:none;stroke-width:0.64031243" id="rect4072-3-06-4" width="18" height="3" x="168" y="93"/>
      <rect y="93" x="168" height="2" width="18" id="rect4016-0-6-7" style="fill:currentColor;fill-opacity:1;stroke:none;stroke-width:0.64031243" class="ColorScheme-Highlight"/>
      <g id="g4327-6-2-8">
        <rect y="94" x="168" height="1" width="18" id="rect3259-56-15-5-4" style="fill:#000000;fill-opacity:0.749;stroke:none;stroke-width:0.64031243"/>
        <rect y="93" x="168" height="1" width="18" id="rect3342-5-86-5" style="fill:#000000;fill-opacity:0.537;stroke:none;stroke-width:0.64031243"/>
      </g>
    </g>
    <g id="group-expander-right" inkscape:label="#g4806">
      <rect y="101" x="25" height="48" width="48" id="rect4800" style="opacity:1;vector-effect:none;fill:#ff00ff;fill-opacity:0;stroke:none;stroke-width:1px;stroke-linecap:butt;stroke-linejoin:miter;stroke-miterlimit:4;stroke-dasharray:none;stroke-dashoffset:0;stroke-opacity:1;marker:none"/>
      <path sodipodi:nodetypes="ccccccccc" inkscape:connector-curvature="0" id="path4802" d="M 68,142.5 63.5,147 59,142.5 V 141 h 1.5 l 3,3 3,-3 H 68 Z" style="fill:currentColor;fill-opacity:1;stroke:none;stroke-width:1px;stroke-linecap:butt;stroke-linejoin:miter;stroke-opacity:1" class="ColorScheme-Text"/>
    </g>
    <g transform="translate(50)" id="group-expander-bottom" inkscape:label="#g4806">
      <rect y="101" x="25" height="48" width="48" id="rect4800-6" style="opacity:1;vector-effect:none;fill:#ff00ff;fill-opacity:0;stroke:none;stroke-width:1px;stroke-linecap:butt;stroke-linejoin:miter;stroke-miterlimit:4;stroke-dasharray:none;stroke-dashoffset:0;stroke-opacity:1;marker:none"/>
      <path sodipodi:nodetypes="ccccccccc" inkscape:connector-curvature="0" id="path4802-7" d="M 73,139.5 68.5,144 64,139.5 V 138 h 1.5 l 3,3 3,-3 H 73 Z" style="fill:currentColor;fill-opacity:1;stroke:none;stroke-width:1px;stroke-linecap:butt;stroke-linejoin:miter;stroke-opacity:1" class="ColorScheme-Text"/>
    </g>
    <g transform="translate(100)" id="group-expander-left" inkscape:label="#g4806">
      <rect y="101" x="25" height="48" width="48" id="rect4800-3" style="opacity:1;vector-effect:none;fill:#ff00ff;fill-opacity:0;stroke:none;stroke-width:1px;stroke-linecap:butt;stroke-linejoin:miter;stroke-miterlimit:4;stroke-dasharray:none;stroke-dashoffset:0;stroke-opacity:1;marker:none"/>
      <path sodipodi:nodetypes="ccccccccc" inkscape:connector-curvature="0" id="path4802-5" d="M 73,142.5 68.5,147 64,142.5 V 141 h 1.5 l 3,3 3,-3 H 73 Z" style="fill:currentColor;fill-opacity:1;stroke:none;stroke-width:1px;stroke-linecap:butt;stroke-linejoin:miter;stroke-opacity:1" class="ColorScheme-Text"/>
    </g>
    <g id="group-expander-top" inkscape:label="#g4813">
      <rect style="opacity:1;vector-effect:none;fill:#ff00ff;fill-opacity:0;stroke:none;stroke-width:1px;stroke-linecap:butt;stroke-linejoin:miter;stroke-miterlimit:4;stroke-dasharray:none;stroke-dashoffset:0;stroke-opacity:1;marker:none" id="rect4800-2" width="48" height="48" x="175" y="101"/>
      <path style="fill:currentColor;fill-opacity:1;stroke:none;stroke-width:1px;stroke-linecap:butt;stroke-linejoin:miter;stroke-opacity:1" d="m 223,144.5 -4.5,4.5 -4.5,-4.5 V 143 h 1.5 l 3,3 3,-3 h 1.5 z" id="path4802-9" inkscape:connector-curvature="0" sodipodi:nodetypes="ccccccccc" class="ColorScheme-Text"/>
    </g>
    <g id="hover-center" inkscape:label="#g5688">
      <rect inkscape:label="#hover-center" style="fill:currentColor;fill-opacity:0.333;stroke:none" id="hover-center_" width="18" height="18" x="56" y="74" class="ColorScheme-ButtonBackground"/>
      <rect y="74" x="56" height="18" width="18" id="rect5684" style="fill:#ffffef;fill-opacity:1;stroke:none;opacity:0.101" inkscape:label="#hover-center"/>
    </g>
  </g>
</svg>
